<?xml version="1.0" encoding="UTF-8"?>
<svg version="1.1" xmlns="http://www.w3.org/2000/svg" width="1126" height="862">
<path d="M0 0 C371.58 0 743.16 0 1126 0 C1126 284.46 1126 568.92 1126 862 C754.42 862 382.84 862 0 862 C0 577.54 0 293.08 0 0 Z " fill="#4643DA" transform="translate(0,0)"/>
<path d="M0 0 C1.25454214 -0.0072672 2.50908427 -0.01453441 3.80164284 -0.02202183 C7.28310368 -0.04147415 10.76387031 -0.02985325 14.24531972 -0.01313207 C18.03309321 -0.00044368 21.82076062 -0.01674998 25.60851908 -0.02934873 C32.24678877 -0.0474104 38.88485516 -0.04685754 45.52313423 -0.03411293 C55.39438778 -0.01521287 65.26546959 -0.02486269 75.13672195 -0.04015447 C92.76594226 -0.06649724 110.39507203 -0.06419564 128.02430098 -0.0497599 C143.4517903 -0.03718888 158.87924641 -0.03389546 174.30673981 -0.03987312 C175.32953916 -0.04025505 176.35233852 -0.04063697 177.40613179 -0.04103047 C181.55786543 -0.04258713 185.70959905 -0.04417913 189.86133265 -0.04582929 C228.81863286 -0.06112899 267.77587536 -0.04724954 306.73316667 -0.02034481 C341.35474243 0.00338375 375.97622625 0.00126063 410.59780121 -0.02264977 C449.48322444 -0.04941501 488.36859668 -0.060044 527.25402784 -0.04458845 C531.39825661 -0.04298483 535.54248539 -0.04142063 539.68671417 -0.03987312 C540.70715099 -0.03947774 541.72758781 -0.03908235 542.77894695 -0.03867498 C558.19785249 -0.03298434 573.6167212 -0.03964508 589.03562164 -0.05227089 C606.56521948 -0.06655335 624.09471251 -0.06302264 641.62429726 -0.03586717 C651.43857962 -0.02116574 661.2526351 -0.02025594 671.06691165 -0.03909804 C677.61878207 -0.05029099 684.17047021 -0.04336678 690.72231357 -0.0215742 C694.4578562 -0.00965598 698.19294739 -0.0056626 701.92847615 -0.02360411 C705.95051301 -0.04272506 709.97143962 -0.02329838 713.99345398 0 C715.15576237 -0.01170583 716.31807076 -0.02341166 717.51560062 -0.03547221 C724.44115188 0.045154 729.1872754 1.01939745 734.49672699 5.6292057 C741.2758435 12.56976874 740.19627335 21.61115594 740.1316452 30.67205238 C740.13740906 32.42630366 740.14535195 34.1805489 740.15528142 35.93478155 C740.17614174 40.7470955 740.16584323 45.55891327 740.15035033 50.37122893 C740.13903746 55.56423465 740.15649924 60.75715505 740.17024994 65.95014381 C740.19248749 76.11994297 740.1876788 86.28955766 740.17318673 96.45936406 C740.16189656 104.7242809 740.16036265 112.98914603 740.16580582 121.25406837 C740.16695506 123.01827061 740.16695506 123.01827061 740.16812753 124.8181133 C740.16972615 127.20738019 740.17134722 129.59664707 740.17299049 131.98591393 C740.18724951 154.39209537 740.17085282 176.79817454 740.14398865 199.20433921 C740.12164977 218.43146181 740.12552985 237.65843348 740.14858246 256.88555336 C740.17533771 279.21134568 740.1858762 301.53704836 740.17052114 323.86285448 C740.16892839 326.24335065 740.16735653 328.62384683 740.16580582 331.00434303 C740.16503444 332.1756043 740.16426306 333.34686556 740.16346831 334.55361959 C740.1591505 342.80897499 740.16643964 351.06427354 740.17820358 359.31962013 C740.19222403 369.37963974 740.18843809 379.43946428 740.16179986 389.49946153 C740.14865568 394.63264285 740.14351973 399.76549888 740.16004562 404.89867783 C740.17494549 409.59784569 740.16675622 414.29638676 740.14015786 418.99549776 C740.13457308 420.69524884 740.13741333 422.39505288 740.1495368 424.0947699 C740.25908478 440.72961578 740.25908478 440.72961578 734.49672699 446.6292057 C728.15253869 452.13740013 722.12948043 452.34035089 713.99345398 452.25841141 C712.73891184 452.26567861 711.48436971 452.27294582 710.19181114 452.28043324 C706.7103503 452.29988556 703.22958367 452.28826465 699.74813426 452.27154347 C695.96036077 452.25885509 692.17269336 452.27516139 688.3849349 452.28776014 C681.74666521 452.30582181 675.10859882 452.30526895 668.47031975 452.29252434 C658.5990662 452.27362427 648.72798439 452.2832741 638.85673203 452.29856587 C621.22751172 452.32490865 603.59838195 452.32260705 585.969153 452.30817131 C570.54166368 452.29560029 555.11420757 452.29230687 539.68671417 452.29828453 C538.66391482 452.29866646 537.64111546 452.29904838 536.58732219 452.29944188 C532.43558855 452.30099854 528.28385493 452.30259053 524.13212133 452.3042407 C485.17482112 452.3195404 446.21757861 452.30566095 407.26028731 452.27875621 C372.63871155 452.25502766 338.01722773 452.25715078 303.39565277 452.28106117 C264.51022954 452.30782642 225.6248573 452.31845541 186.73942614 452.30299985 C182.59519737 452.30139623 178.45096859 452.29983204 174.30673981 452.29828453 C172.77608458 452.29769145 172.77608458 452.29769145 171.21450702 452.29708639 C155.79560148 452.29139575 140.37673278 452.29805649 124.95783234 452.3106823 C107.4282345 452.32496476 89.89874147 452.32143405 72.36915672 452.29427858 C62.55487436 452.27957715 52.74081888 452.27866734 42.92654232 452.29750945 C36.37467191 452.3087024 29.82298377 452.30177819 23.27114041 452.2799856 C19.53559778 452.26806739 15.80050659 452.26407401 12.06497782 452.28201552 C8.04294097 452.30113647 4.02201436 452.28170979 0 452.25841141 C-1.16230839 452.27011724 -2.32461678 452.28182307 -3.52214664 452.29388362 C-10.4476979 452.21325741 -15.19382142 451.23901396 -20.50327301 446.6292057 C-27.28238952 439.68864267 -26.20281937 430.64725547 -26.13819122 421.58635902 C-26.14395508 419.83210774 -26.15189797 418.0778625 -26.16182745 416.32362986 C-26.18268776 411.51131591 -26.17238926 406.69949814 -26.15689635 401.88718247 C-26.14558348 396.69417676 -26.16304526 391.50125636 -26.17679596 386.30826759 C-26.19903351 376.13846844 -26.19422482 365.96885375 -26.17973275 355.79904735 C-26.16844258 347.53413051 -26.16690867 339.26926537 -26.17235184 331.00434303 C-26.173118 329.82820821 -26.17388417 328.65207338 -26.17467355 327.44029811 C-26.17627217 325.05103122 -26.17789324 322.66176434 -26.17953651 320.27249748 C-26.19379553 297.86631604 -26.17739884 275.46023687 -26.15053467 253.0540722 C-26.12819579 233.8269496 -26.13207587 214.59997793 -26.15512848 195.37285805 C-26.18188373 173.04706572 -26.19242222 150.72136304 -26.17706716 128.39555693 C-26.17547441 126.01506076 -26.17390256 123.63456457 -26.17235184 121.25406837 C-26.17158046 120.08280711 -26.17080908 118.91154584 -26.17001433 117.70479181 C-26.16569652 109.44943642 -26.17298566 101.19413787 -26.1847496 92.93879128 C-26.19877005 82.87877166 -26.19498411 72.81894713 -26.16834588 62.75894988 C-26.1552017 57.62576855 -26.15006575 52.49291253 -26.16659164 47.35973358 C-26.18149152 42.66056572 -26.17330224 37.96202465 -26.14670388 33.26291364 C-26.1411191 31.56316257 -26.14395935 29.86335853 -26.15608282 28.16364151 C-26.2656308 11.52879563 -26.2656308 11.52879563 -20.50327301 5.6292057 C-14.15908471 0.12101128 -8.13602645 -0.08193948 0 0 Z " fill="#FBFBFB" transform="translate(192.5032730102539,225.37079429626465)"/>
<path d="M0 0 C0.94614575 -0.00327219 1.89229151 -0.00654439 2.86710835 -0.00991574 C4.44014363 -0.0076903 4.44014363 -0.0076903 6.0449574 -0.00541991 C7.15641739 -0.00777214 8.26787739 -0.01012437 9.41301799 -0.01254788 C13.18193845 -0.01926811 16.95082467 -0.01877875 20.71975064 -0.01836985 C23.43132078 -0.02111699 26.14288814 -0.02535375 28.85445642 -0.02951133 C35.55381773 -0.03885531 42.25317243 -0.0427624 48.95253943 -0.0450303 C56.97277668 -0.04798769 64.99300511 -0.05668232 73.01323774 -0.06544458 C92.40056115 -0.08630848 111.78788611 -0.09676162 131.17521813 -0.10557419 C140.34228904 -0.1097777 149.50935929 -0.11500007 158.67642964 -0.12025872 C190.04109201 -0.1381501 221.40575456 -0.15314746 252.77042127 -0.16057891 C254.74022792 -0.16105367 256.71003458 -0.16152956 258.67984124 -0.16200657 C259.65671199 -0.16224294 260.63358274 -0.16247932 261.64005564 -0.16272286 C266.58957393 -0.16392409 271.53909222 -0.16513953 276.48861051 -0.16636485 C277.47086667 -0.166605 278.45312284 -0.16684515 279.46514434 -0.16709258 C311.32404799 -0.1749884 343.18291444 -0.19842547 375.04180184 -0.23092079 C408.70537489 -0.26519433 442.36892617 -0.28492773 476.03251696 -0.28822315 C479.72575959 -0.2886407 483.41900222 -0.28912027 487.11224484 -0.28964633 C488.02166032 -0.28976952 488.9310758 -0.28989271 489.86804932 -0.29001964 C504.52280374 -0.29235471 519.17751507 -0.30803171 533.83225412 -0.32848817 C548.55389378 -0.3487125 563.27548152 -0.35423959 577.99713251 -0.34471754 C586.74977965 -0.33948939 595.50225428 -0.34544179 604.2548767 -0.36725221 C610.09672836 -0.38071274 615.93846066 -0.37972558 621.78031338 -0.36685025 C625.11212957 -0.35992161 628.44334435 -0.36158185 631.77517542 -0.37641034 C635.36057214 -0.39138531 638.94508789 -0.3819558 642.53046155 -0.36618346 C643.56978707 -0.37640567 644.6091126 -0.38662787 645.67993283 -0.39715984 C651.63204482 -0.33960707 654.9810541 0.2083425 659.53939176 4.12880117 C662.5666331 7.23917459 662.91994343 9.43301718 662.94344449 13.72010976 C662.95612866 14.84162435 662.96881284 15.96313894 662.98188138 17.11863881 C662.97747792 18.92964574 662.97747792 18.92964574 662.97298551 20.77723867 C662.97822736 22.0225234 662.98346921 23.26780813 662.98886991 24.55082875 C662.99529482 27.18553917 662.99538621 29.81938402 662.98543668 32.45399648 C662.97624214 35.15060091 662.98316663 37.84634044 663.00594449 40.54286367 C663.03663952 44.43375594 663.04002552 48.32374462 663.03548551 52.21473867 C663.04671948 53.41802816 663.05795346 54.62131765 663.06952786 55.86107045 C662.98108036 66.49461562 662.98108036 66.49461562 658.53939176 71.12880117 C653.72417487 75.11585327 648.60439126 74.54641426 642.66188931 74.50632459 C641.54666819 74.51068491 640.43144707 74.51504523 639.28243136 74.51953769 C635.51867951 74.53054833 631.75528982 74.52004458 627.99154019 74.50975209 C625.27666262 74.51154317 622.56179972 74.51784586 619.84692883 74.52393383 C613.93047132 74.53478352 608.01409588 74.53443126 602.09763455 74.52679235 C593.29979265 74.51546396 584.50202022 74.52123616 575.70417881 74.53041727 C559.99299903 74.54623199 544.28185579 74.54483837 528.57067251 74.53618053 C514.82175697 74.528641 501.07285484 74.52666042 487.32393765 74.53024846 C486.4127908 74.53047762 485.50164394 74.53070677 484.56288657 74.53094287 C480.86446801 74.53187685 477.16604945 74.53283205 473.46763091 74.53382216 C438.75659984 74.54300413 404.04559209 74.53467091 369.33456463 74.51853147 C338.47965076 74.50429411 307.62477404 74.50556797 276.76986051 74.51991445 C242.12329022 74.53596998 207.47674054 74.54235301 172.83016706 74.53307766 C169.13839333 74.53211547 165.44661959 74.53117695 161.75484586 74.53024846 C160.84580246 74.53001123 159.93675906 74.529774 159.00016889 74.52952958 C145.25815127 74.5261137 131.51614853 74.53011442 117.77413297 74.53768712 C102.15260944 74.5462525 86.53112826 74.54414694 70.90961003 74.52784489 C62.16121525 74.51901715 53.41291211 74.51848811 44.66451965 74.52978341 C38.82687347 74.53649087 32.98930104 74.53235972 27.15166582 74.51926911 C23.82156835 74.51210665 20.49180415 74.5113804 17.16168857 74.52048706 C13.57991205 74.52953497 9.99864363 74.52032861 6.4168942 74.50632459 C5.3757992 74.51334809 4.33470421 74.52037159 3.26206088 74.52760792 C-5.50434046 74.45853068 -5.50434046 74.45853068 -9.46060824 71.12880117 C-13.61657521 65.55883694 -12.94591841 58.97039611 -12.96451449 52.32020742 C-12.97449969 51.08012426 -12.98448489 49.8400411 -12.99477267 48.56237966 C-13.00993621 45.94417318 -13.01699901 43.32590893 -13.01651645 40.70765859 C-13.01627213 38.03126094 -13.03717431 35.35639794 -13.07803988 32.68031484 C-13.13305732 28.8098022 -13.14772685 24.94107225 -13.15201449 21.07020742 C-13.17357104 19.87835332 -13.19512759 18.68649923 -13.21733737 17.45852834 C-13.16366802 10.93853719 -12.68075061 6.98438491 -7.94411349 2.3027361 C-5.22221697 0.14883107 -3.39971548 0.00306594 0 0 Z " fill="#4A44DB" transform="translate(224.46060824394226,297.87119883298874)"/>
<path d="M0 0 C0.67370134 -0.00581376 1.34740269 -0.01162753 2.04151922 -0.01761746 C4.30958717 -0.03226994 6.57658175 -0.01830895 8.84464264 -0.00457001 C10.48279548 -0.00917688 12.1209442 -0.01552836 13.75908422 -0.02347898 C18.26886109 -0.04022492 22.77830072 -0.03190216 27.28807902 -0.01953411 C32.14841327 -0.0105074 37.00868833 -0.0244415 41.86901093 -0.0354538 C51.3936311 -0.05326909 60.91812541 -0.04938565 70.44275057 -0.03780323 C78.18147672 -0.02878101 85.92016751 -0.02753966 93.6588974 -0.0318985 C94.75901896 -0.03251143 95.85914052 -0.03312436 96.9925991 -0.03375587 C99.22725905 -0.03503473 101.46191899 -0.03633158 103.69657892 -0.03764623 C124.66620718 -0.04906085 145.63576558 -0.0359245 166.60538238 -0.01444477 C184.6103417 0.003427 202.61519788 0.00032314 220.62015533 -0.01811981 C241.51316417 -0.03951096 262.40611171 -0.04796213 283.29912996 -0.03567076 C285.52571137 -0.03439652 287.75229278 -0.03313904 289.97887421 -0.0318985 C291.62228767 -0.03097285 291.62228767 -0.03097285 293.29890141 -0.03002849 C301.03109762 -0.02657032 308.76325505 -0.03241399 316.49544525 -0.04181671 C325.91445981 -0.05301858 335.33334098 -0.05003488 344.7523402 -0.02869374 C349.56092096 -0.01815887 354.36927908 -0.01410283 359.17785835 -0.02729034 C363.57590289 -0.03916982 367.97351745 -0.03272563 372.37152272 -0.01138014 C373.96634504 -0.00689512 375.56120334 -0.00922267 377.1560027 -0.01888329 C379.31711532 -0.03097477 381.47673797 -0.01864882 383.63777161 0 C384.8400762 0.00064941 386.0423808 0.00129882 387.28111887 0.00196791 C390.92598207 0.60356844 392.10455293 1.60123421 394.3188858 4.50336456 C394.82682037 6.85565948 394.82682037 6.85565948 394.83646393 9.48383331 C394.84907257 10.47165802 394.86168121 11.45948273 394.87467194 12.47724152 C394.86252655 14.06798492 394.86252655 14.06798492 394.8501358 15.69086456 C394.85396271 16.78552032 394.85778961 17.88017609 394.86173248 19.00800323 C394.86445317 21.32124502 394.85708114 23.63451748 394.84037018 25.9477005 C394.8189642 29.49038979 394.84016806 33.03105093 394.8657608 36.57367706 C394.86311756 38.82107738 394.85799265 41.06847643 394.8501358 43.31586456 C394.85823273 44.37636017 394.86632965 45.43685577 394.87467194 46.52948761 C394.85575897 48.01122467 394.85575897 48.01122467 394.83646393 49.52289581 C394.83328156 50.39019318 394.83009918 51.25749054 394.82682037 52.15106964 C394.12623008 55.39557218 392.912753 56.45459966 390.3188858 58.50336456 C387.28111887 59.00476122 387.28111887 59.00476122 383.63777161 59.00672913 C382.96407026 59.01254289 382.29036892 59.01835665 381.59625238 59.02434659 C379.32818443 59.03899906 377.06118986 59.02503808 374.79312897 59.01129913 C373.15497612 59.01590601 371.51682741 59.02225748 369.87868738 59.03020811 C365.36891052 59.04695405 360.85947089 59.03863129 356.34969258 59.02626324 C351.48935834 59.01723652 346.62908328 59.03117062 341.76876068 59.04218292 C332.24414051 59.05999822 322.7196462 59.05611477 313.19502103 59.04453236 C305.45629489 59.03551013 297.7176041 59.03426878 289.97887421 59.03862762 C288.87875265 59.03924056 287.77863108 59.03985349 286.64517251 59.04048499 C284.41051256 59.04176386 282.17585262 59.04306071 279.94119269 59.04437536 C258.97156442 59.05578998 238.00200603 59.04265363 217.03238922 59.02117389 C199.0274299 59.00330213 181.02257373 59.00640598 163.01761627 59.02484894 C142.12460744 59.04624008 121.23165989 59.05469126 100.33864164 59.04239988 C98.11206024 59.04112565 95.88547882 59.03986816 93.6588974 59.03862762 C92.01548393 59.03770197 92.01548393 59.03770197 90.3388702 59.03675762 C82.60667399 59.03329945 74.87451656 59.03914311 67.14232635 59.04854584 C57.7233118 59.0597477 48.30443062 59.05676401 38.88543141 59.03542286 C34.07685065 59.024888 29.26849252 59.02083196 24.45991325 59.03401947 C20.06186872 59.04589894 15.66425415 59.03945476 11.26624888 59.01810926 C9.67142657 59.01362424 8.07656827 59.0159518 6.48176891 59.02561241 C4.32065628 59.03770389 2.16103363 59.02537795 0 59.00672913 C-1.2023046 59.00607972 -2.40460919 59.00543031 -3.64334726 59.00476122 C-7.28821046 58.40316068 -8.46678132 57.40549492 -10.6811142 54.50336456 C-11.18904877 52.15106964 -11.18904877 52.15106964 -11.19869232 49.52289581 C-11.21130096 48.53507111 -11.22390961 47.5472464 -11.23690033 46.52948761 C-11.22880341 45.468992 -11.22070648 44.4084964 -11.2123642 43.31586456 C-11.2161911 42.2212088 -11.22001801 41.12655304 -11.22396088 39.99872589 C-11.22668156 37.68548411 -11.21930954 35.37221165 -11.20259857 33.05902863 C-11.18119259 29.51633934 -11.20239645 25.9756782 -11.2279892 22.43305206 C-11.22534595 20.18565175 -11.22022104 17.9382527 -11.2123642 15.69086456 C-11.22046112 14.63036896 -11.22855804 13.56987335 -11.23690033 12.47724152 C-11.22429169 11.48941681 -11.21168304 10.5015921 -11.19869232 9.48383331 C-11.19550995 8.61653595 -11.19232758 7.74923859 -11.18904877 6.85565948 C-9.87150427 0.7539814 -5.58045391 0.00301421 0 0 Z " fill="#FBFBFB" transform="translate(357.68111419677734,434.4966354370117)"/>
<path d="M0 0 C1.14259781 -0.0112793 2.28519562 -0.02255859 3.4624176 -0.03417969 C5.33661377 -0.0220343 5.33661377 -0.0220343 7.24867249 -0.00964355 C8.56771072 -0.01665283 9.88674896 -0.02366211 11.24575806 -0.03088379 C14.86159361 -0.0491176 18.47697259 -0.04204927 22.09281611 -0.02936745 C25.87814356 -0.01923781 29.663432 -0.02863321 33.44876099 -0.03491211 C39.80661534 -0.04218954 46.16428385 -0.03259935 52.52210999 -0.0135498 C59.86923917 0.00820993 67.2159242 0.00117477 74.56304258 -0.02085543 C80.87316655 -0.03901798 87.18315693 -0.04156333 93.49329859 -0.03110075 C97.26110871 -0.02486926 101.02871022 -0.02402034 104.79650688 -0.0372467 C108.34007573 -0.0488169 111.88307319 -0.04075904 115.42658043 -0.01766968 C117.34475803 -0.00987225 119.26298404 -0.02172928 121.18113708 -0.03417969 C122.89926353 -0.01726074 122.89926353 -0.01726074 124.65209961 0 C126.1417594 0.00226215 126.1417594 0.00226215 127.66151333 0.00457001 C131.15845405 0.64981113 132.85949336 2.05747685 135.38954163 4.50793457 C136.02445984 6.8155365 136.02445984 6.8155365 136.03651428 9.3807373 C136.05227509 10.34531357 136.06803589 11.30988983 136.08427429 12.30369568 C136.07415314 13.33918045 136.06403198 14.37466522 136.05360413 15.44152832 C136.05838776 16.51161636 136.06317139 17.58170441 136.06809998 18.68421936 C136.07150086 20.94619212 136.06228537 23.2082139 136.04139709 25.47009277 C136.01466253 28.92978826 136.04112718 32.38623143 136.07313538 35.8458252 C136.0698308 38.04440006 136.06342358 40.2429729 136.05360413 42.44152832 C136.06372528 43.47498886 136.07384644 44.5084494 136.08427429 45.57322693 C136.06063309 47.02481956 136.06063309 47.02481956 136.03651428 48.5057373 C136.03253632 49.35304916 136.02855835 50.20036102 136.02445984 51.073349 C135.0039743 54.98638744 133.75889197 56.21339553 130.38954163 58.50793457 C126.06469051 59.26056643 121.78145816 59.19044812 117.40101624 59.15490723 C116.06687223 59.16168638 114.73273758 59.1705912 113.39862061 59.18145752 C109.78282684 59.20422083 106.16774763 59.19542812 102.55194163 59.17956209 C98.76614525 59.16689 94.98040942 59.17864657 91.1946106 59.18649292 C84.83849618 59.19558462 78.48267244 59.18361324 72.12660217 59.15979004 C64.77877911 59.13256764 57.43164949 59.14140237 50.08384317 59.16892207 C43.77284368 59.19161209 37.46205293 59.19481421 31.15102583 59.18172872 C27.38266192 59.17393498 23.614624 59.17289031 19.84628105 59.18941116 C15.64666028 59.20653754 11.44823532 59.18280246 7.24867249 59.15490723 C5.99920837 59.16502838 4.74974426 59.17514954 3.4624176 59.18557739 C2.31981979 59.17147827 1.17722198 59.15737915 0 59.14285278 C-0.9927295 59.14096766 -1.985459 59.13908253 -3.00827122 59.13714027 C-6.59990926 58.26868654 -7.65095851 56.55306943 -9.61045837 53.50793457 C-10.11839294 51.073349 -10.11839294 51.073349 -10.1280365 48.5057373 C-10.14064514 47.53800888 -10.15325378 46.57028046 -10.16624451 45.57322693 C-10.15814758 44.53976639 -10.15005066 43.50630585 -10.14170837 42.44152832 C-10.14553528 41.37048355 -10.14936218 40.29943878 -10.15330505 39.19593811 C-10.1560228 36.93575091 -10.14867132 34.67553219 -10.13194275 32.41540527 C-10.11051141 28.95400032 -10.1317612 25.49466613 -10.15733337 22.0333252 C-10.15469049 19.83605499 -10.14956632 17.63878607 -10.14170837 15.44152832 C-10.1498053 14.40604355 -10.15790222 13.37055878 -10.16624451 12.30369568 C-10.15363586 11.33911942 -10.14102722 10.37454315 -10.1280365 9.3807373 C-10.12485413 8.53422104 -10.12167175 7.68770477 -10.11839294 6.8155365 C-8.91250387 1.33705146 -5.15510962 0.00783137 0 0 Z " fill="#3679F6" transform="translate(486.61045837402344,550.4920654296875)"/>
<path d="M0 0 C0.93210045 0.00054477 1.8642009 0.00108953 2.82454681 0.00165081 C4.42723167 -0.00464092 4.42723167 -0.00464092 6.06229401 -0.01105976 C7.82811073 -0.0026305 7.82811073 -0.0026305 9.62960052 0.00596905 C11.48327492 0.00312153 11.48327492 0.00312153 13.37439728 0.00021648 C16.76902322 -0.00285973 20.16340705 0.00303266 23.55800438 0.01316953 C27.10583477 0.02193867 30.65366092 0.0201928 34.20149994 0.01980877 C40.16014047 0.02074595 46.11873015 0.02943708 52.07735443 0.04307842 C58.97220532 0.05880452 65.86700048 0.06407655 72.761868 0.06334287 C79.38695075 0.06273303 86.0120153 0.06783443 92.63709259 0.07613468 C95.46002087 0.07967052 98.28294272 0.08149836 101.10587311 0.08202839 C105.04479197 0.08321716 108.98366423 0.09292014 112.92256927 0.1036253 C114.688386 0.10294552 114.688386 0.10294552 116.48987579 0.10225201 C118.09256065 0.10864948 118.09256065 0.10864948 119.72762299 0.1151762 C120.65972343 0.11685205 121.59182388 0.11852789 122.5521698 0.12025452 C124.7760849 0.24888897 124.7760849 0.24888897 126.7760849 1.24888897 C126.80074112 5.5030352 126.81892389 9.75714395 126.83101654 14.01134014 C126.83605591 15.45958969 126.84288743 16.90783414 126.85152435 18.3560667 C126.86360737 20.43363485 126.86931701 22.51113594 126.87374115 24.58873272 C126.87897797 25.84033184 126.88421478 27.09193096 126.88961029 28.38145733 C126.7760849 31.24888897 126.7760849 31.24888897 125.7760849 32.24888897 C124.10583821 32.3450303 122.43150214 32.37076619 120.75849152 32.36914349 C119.67169098 32.37051815 118.58489044 32.37189281 117.46515656 32.37330914 C116.26250656 32.36971386 115.05985657 32.36611858 113.82076263 32.36241436 C112.56240601 32.36256039 111.30404938 32.36270641 110.00756073 32.36285686 C106.54697237 32.36314482 103.08641838 32.35724846 99.62583804 32.35028291 C96.01300399 32.344049 92.40016923 32.34344554 88.78733063 32.3422575 C81.94144982 32.33914429 75.0955849 32.33093105 68.2497111 32.32090801 C60.45781901 32.30974654 52.66592617 32.30423634 44.87402809 32.29921257 C28.84137104 32.28874843 12.80873 32.2711492 -3.2239151 32.24888897 C-5.51222618 27.67226681 -4.40894215 21.27391605 -4.4114151 16.24888897 C-4.42366119 14.93920147 -4.43590729 13.62951397 -4.44852448 12.28013897 C-4.45045807 11.03232647 -4.45239166 9.78451397 -4.45438385 8.49888897 C-4.45849274 7.34904522 -4.46260162 6.19920147 -4.46683502 5.01451397 C-4.16507091 1.57895235 -3.52396131 0.39438335 0 0 Z " fill="#DFE0DF" transform="translate(364.22391510009766,447.7511110305786)"/>
<path d="M0 0 C0.99 0 1.98 0 3 0 C5 0 7 0 9 0 C9.08736736 3.72901814 9.14051482 7.45777165 9.1875 11.1875 C9.21263672 12.24259766 9.23777344 13.29769531 9.26367188 14.38476562 C9.27333984 15.40634766 9.28300781 16.42792969 9.29296875 17.48046875 C9.3086792 18.41785889 9.32438965 19.35524902 9.34057617 20.32104492 C8.93229508 23.53256353 7.88830698 25.39378631 6 28 C2.06931221 29.96534389 -2.71439252 29.46844159 -7 29 C-9.6875 27.1875 -9.6875 27.1875 -11 25 C-11 24.01 -11 23.02 -11 22 C-6.97007218 22.55312735 -2.97977076 23.1558062 1 24 C1.33 22.68 1.66 21.36 2 20 C1.34 20.33 0.68 20.66 0 21 C-3.85633638 21.51417818 -5.5518122 21.28255318 -8.875 19.1875 C-11.96584744 14.55122884 -12.00709788 10.41721198 -11 5 C-7.86311372 0.29467058 -5.53575963 -0.601713 0 0 Z " fill="#F5F3FA" transform="translate(505,327)"/>
<path d="M0 0 C1.23556641 0.01740234 1.23556641 0.01740234 2.49609375 0.03515625 C3.32238281 0.04417969 4.14867187 0.05320312 5 0.0625 C5.63808594 0.07410156 6.27617187 0.08570313 6.93359375 0.09765625 C8.43858384 4.38758958 9.93674012 8.67987783 11.43359375 12.97265625 C11.86285156 14.19597656 12.29210937 15.41929687 12.734375 16.6796875 C13.14042969 17.84628906 13.54648437 19.01289063 13.96484375 20.21484375 C14.34189453 21.29362793 14.71894531 22.37241211 15.10742188 23.48388672 C15.93359375 26.09765625 15.93359375 26.09765625 15.93359375 28.09765625 C13.62359375 28.09765625 11.31359375 28.09765625 8.93359375 28.09765625 C8.60359375 26.11765625 8.27359375 24.13765625 7.93359375 22.09765625 C3.97359375 22.42765625 0.01359375 22.75765625 -4.06640625 23.09765625 C-5.05640625 25.57265625 -5.05640625 25.57265625 -6.06640625 28.09765625 C-8.04640625 28.09765625 -10.02640625 28.09765625 -12.06640625 28.09765625 C-10.26321029 21.65993032 -8.15435809 15.34134147 -5.94140625 9.03515625 C-5.67569824 8.27275635 -5.40999023 7.51035645 -5.13623047 6.72485352 C-2.80356065 0.13249341 -2.80356065 0.13249341 0 0 Z " fill="#F7F6FC" transform="translate(387.06640625,319.90234375)"/>
<path d="M0 0 C2.66666667 0 5.33333333 0 8 0 C9.155 -0.020625 10.31 -0.04125 11.5 -0.0625 C15 0 15 0 18 1 C18.66 0.67 19.32 0.34 20 0 C26.36904896 -0.46320356 26.36904896 -0.46320356 28.7043457 1.2512207 C30.31310574 3.4226072 30.34997414 4.55121554 30.29296875 7.23046875 C30.28330078 8.03291016 30.27363281 8.83535156 30.26367188 9.66210938 C30.23853516 10.49548828 30.21339844 11.32886719 30.1875 12.1875 C30.16719727 13.4549707 30.16719727 13.4549707 30.14648438 14.74804688 C30.11115799 16.83230384 30.05735139 18.91623277 30 21 C28.02 21 26.04 21 24 21 C23.67 15.72 23.34 10.44 23 5 C21.68 5.33 20.36 5.66 19 6 C18.67 10.95 18.34 15.9 18 21 C16.02 21 14.04 21 12 21 C11.67 15.72 11.34 10.44 11 5 C9.68 5.33 8.36 5.66 7 6 C6.67 10.95 6.34 15.9 6 21 C4.02 21 2.04 21 0 21 C0 14.07 0 7.14 0 0 Z " fill="#F7F7FC" transform="translate(438,327)"/>
<path d="M0 0 C3.58975819 1.42094595 4.62176495 2.22551871 6.3125 5.6875 C6.6528125 6.8321875 6.6528125 6.8321875 7 8 C6 9 6 9 3.6875 9.3125 C1 9 1 9 -0.9375 6.9375 C-1.618125 6.298125 -2.29875 5.65875 -3 5 C-6.19954954 5.14349347 -6.19954954 5.14349347 -9 6 C-11.21319962 11.20752853 -11.15557096 14.57770549 -10 20 C-8.99511774 22.17500647 -8.99511774 22.17500647 -7 23 C-3.91004903 23.08223366 -3.91004903 23.08223366 -1 22 C0.43637698 20.04836882 0.43637698 20.04836882 1 18 C2.98 18.66 4.96 19.32 7 20 C6.11593727 22.97366555 5.31696033 24.7127547 3 26.8125 C-1.38534655 28.54836634 -5.35132041 28.79585395 -10 28 C-13.36880847 26.32592953 -15.41089876 23.96398385 -17.375 20.75 C-18.63367722 15.21182024 -18.90429947 10.74400612 -16.25 5.625 C-11.26601461 -0.18964962 -7.46395335 -0.88309335 0 0 Z " fill="#F3F4FC" transform="translate(568,320)"/>
<path d="M0 0 C3.37251547 0.78367747 4.46323748 1.70728282 6.4375 4.56640625 C7.05041627 7.47960914 7.13331703 10.34619422 7.1875 13.31640625 C7.21714844 14.10917969 7.24679687 14.90195312 7.27734375 15.71875 C7.34777787 17.66742719 7.39493482 19.6169212 7.4375 21.56640625 C5.4575 21.56640625 3.4775 21.56640625 1.4375 21.56640625 C1.4375 20.90640625 1.4375 20.24640625 1.4375 19.56640625 C0.4475 20.22640625 -0.5425 20.88640625 -1.5625 21.56640625 C-7.88508065 22.01801915 -7.88508065 22.01801915 -11.5625 19.56640625 C-12 16.12890625 -12 16.12890625 -11.5625 12.56640625 C-9.24981879 9.67555474 -6.82708498 9.34627127 -3.3125 8.87890625 C-2.075 8.77578125 -0.8375 8.67265625 0.4375 8.56640625 C-0.2225 7.57640625 -0.8825 6.58640625 -1.5625 5.56640625 C-2.5525 5.56640625 -3.5425 5.56640625 -4.5625 5.56640625 C-4.8925 6.22640625 -5.2225 6.88640625 -5.5625 7.56640625 C-7.2125 7.56640625 -8.8625 7.56640625 -10.5625 7.56640625 C-10.8925 6.90640625 -11.2225 6.24640625 -11.5625 5.56640625 C-8.57763957 0.13938729 -5.71736756 0.0087155 0 0 Z " fill="#F4F3FB" transform="translate(483.5625,326.43359375)"/>
<path d="M0 0 C2.96748307 0.63702678 4.16831078 1.14205465 6.18359375 3.46875 C6.82553663 6.52154502 6.88064512 9.54431468 6.93359375 12.65625 C6.96324219 13.50123047 6.99289062 14.34621094 7.0234375 15.21679688 C7.09406365 17.30026822 7.1411017 19.38451506 7.18359375 21.46875 C4.18359375 21.46875 1.18359375 21.46875 -1.81640625 21.46875 C-3.54890625 21.5615625 -3.54890625 21.5615625 -5.31640625 21.65625 C-8.81640625 21.46875 -8.81640625 21.46875 -10.75390625 20.34375 C-12.35765684 17.51360189 -12.34724379 15.65377524 -11.81640625 12.46875 C-8.22813043 9.3154167 -4.46816972 8.92480524 0.18359375 8.46875 C-0.14640625 7.47875 -0.47640625 6.48875 -0.81640625 5.46875 C-2.13640625 5.46875 -3.45640625 5.46875 -4.81640625 5.46875 C-5.14640625 6.12875 -5.47640625 6.78875 -5.81640625 7.46875 C-7.46640625 7.46875 -9.11640625 7.46875 -10.81640625 7.46875 C-11.14640625 6.80875 -11.47640625 6.14875 -11.81640625 5.46875 C-8.15264871 0.74132091 -5.69349652 -0.07893929 0 0 Z " fill="#F5F5FC" transform="translate(600.81640625,326.53125)"/>
<path d="M0 0 C3 2.0625 3 2.0625 5 5 C5.3125 8.8125 5.3125 8.8125 5 12 C0.71 12 -3.58 12 -8 12 C-7.67 13.32 -7.34 14.64 -7 16 C-5.33388095 16.042721 -3.66617115 16.04063832 -2 16 C-1.67 15.67 -1.34 15.34 -1 15 C0.66617115 14.95936168 2.33388095 14.957279 4 15 C4.33 15.66 4.66 16.32 5 17 C1.9896913 20.14714091 0.70039686 20.94259042 -3.8125 21.3125 C-7.09098835 21.27673467 -8.00661884 20.99591603 -10.9375 19.1875 C-14.14300241 15.78772472 -14.33519928 12.59014192 -14.29296875 8.00390625 C-13.83259178 4.85492778 -12.23099654 3.165379 -10 1 C-6.77061633 -0.61469184 -3.49143247 -0.58079278 0 0 Z " fill="#F4F7FD" transform="translate(702,327)"/>
<path d="M0 0 C2.75329021 1.79562405 4.52627461 3.05254922 6 6 C6 7.98 6 9.96 6 12 C1.71 12 -2.58 12 -7 12 C-6.34 13.32 -5.68 14.64 -5 16 C-1.7 15.67 1.6 15.34 5 15 C5 18 5 18 3.5 19.6875 C0.01985473 21.51457626 -3.19536767 21.70204525 -7 21 C-9.8100346 19.20636089 -11.50940468 17.98119065 -13 15 C-13.55512815 10.36786507 -13.6364242 7.01827873 -11.125 3 C-7.4943374 -0.41709421 -4.9378642 -0.41846307 0 0 Z " fill="#F6F8FD" transform="translate(530,327)"/>
<path d="M0 0 C1.28197266 -0.01160156 1.28197266 -0.01160156 2.58984375 -0.0234375 C5.4850126 0.4430826 6.88197953 1.46261778 9.0625 3.375 C8.7325 4.365 8.4025 5.355 8.0625 6.375 C4.57015756 6.47478121 1.46812852 6.15342938 -1.9375 5.375 C0.29075644 7.60325644 1.72011628 8.06739369 4.6875 9 C5.50476563 9.26039063 6.32203125 9.52078125 7.1640625 9.7890625 C7.79054688 9.98242188 8.41703125 10.17578125 9.0625 10.375 C9.875 13.625 9.875 13.625 10.0625 17.375 C7.94840039 20.1233295 6.32628609 21.15372337 2.8984375 21.75390625 C-1.1894318 21.96581921 -3.4218229 21.68019665 -7 19.5625 C-8.9375 17.375 -8.9375 17.375 -8.9375 14.375 C-6.9575 14.375 -4.9775 14.375 -2.9375 14.375 C-2.9375 15.035 -2.9375 15.695 -2.9375 16.375 C-0.6275 16.375 1.6825 16.375 4.0625 16.375 C4.0625 15.715 4.0625 15.055 4.0625 14.375 C3.45921875 14.27703125 2.8559375 14.1790625 2.234375 14.078125 C-1.54635472 13.37076267 -4.36489477 12.77037028 -7.5625 10.5625 C-8.9375 8.375 -8.9375 8.375 -8.875 5.8125 C-7.07140007 1.12314019 -4.96152961 -0.04476568 0 0 Z " fill="#F2F4FC" transform="translate(640.9375,326.625)"/>
<path d="M0 0 C1.28197266 -0.01160156 1.28197266 -0.01160156 2.58984375 -0.0234375 C5.51882724 0.4485314 6.92670296 1.34326731 9.0625 3.375 C9.0625 4.035 9.0625 4.695 9.0625 5.375 C5.08053543 6.42904945 2.08054691 6.21598656 -1.9375 5.375 C-1.36515625 5.66117187 -0.7928125 5.94734375 -0.203125 6.2421875 C4.9296875 8.80859375 4.9296875 8.80859375 10.0625 11.375 C10.375 14.125 10.375 14.125 10.0625 17.375 C7.91508145 20.00731951 6.2721895 21.16062464 2.90234375 21.7578125 C-1.30806113 21.9686842 -3.39782089 21.7274435 -7 19.375 C-7.639375 18.715 -8.27875 18.055 -8.9375 17.375 C-8.4425 15.89 -8.4425 15.89 -7.9375 14.375 C-6.2875 14.375 -4.6375 14.375 -2.9375 14.375 C-2.9375 15.035 -2.9375 15.695 -2.9375 16.375 C-0.9575 16.375 1.0225 16.375 3.0625 16.375 C3.3925 15.715 3.7225 15.055 4.0625 14.375 C3.14017578 14.21064453 3.14017578 14.21064453 2.19921875 14.04296875 C1.39097656 13.88441406 0.58273437 13.72585938 -0.25 13.5625 C-1.45076172 13.33626953 -1.45076172 13.33626953 -2.67578125 13.10546875 C-5.22402707 12.28246017 -6.32218823 11.49285321 -7.9375 9.375 C-8.5778569 4.25214482 -8.5778569 4.25214482 -6.72265625 1.7109375 C-4.3774843 -0.04409271 -2.90646459 -0.02622374 0 0 Z " fill="#F5F6FD" transform="translate(618.9375,326.625)"/>
<path d="M0 0 C2.01822917 0.06510417 4.03645833 0.13020833 6.0546875 0.1953125 C6.0546875 1.5153125 6.0546875 2.8353125 6.0546875 4.1953125 C4.7346875 4.1953125 3.4146875 4.1953125 2.0546875 4.1953125 C2.0546875 5.1853125 2.0546875 6.1753125 2.0546875 7.1953125 C3.3746875 7.1953125 4.6946875 7.1953125 6.0546875 7.1953125 C6.0546875 8.5153125 6.0546875 9.8353125 6.0546875 11.1953125 C4.7346875 11.1953125 3.4146875 11.1953125 2.0546875 11.1953125 C2.0546875 16.8053125 2.0546875 22.4153125 2.0546875 28.1953125 C0.0746875 28.1953125 -1.9053125 28.1953125 -3.9453125 28.1953125 C-3.9453125 22.5853125 -3.9453125 16.9753125 -3.9453125 11.1953125 C-4.9353125 11.1953125 -5.9253125 11.1953125 -6.9453125 11.1953125 C-6.9453125 9.8753125 -6.9453125 8.5553125 -6.9453125 7.1953125 C-5.9553125 7.1953125 -4.9653125 7.1953125 -3.9453125 7.1953125 C-4.0071875 6.0196875 -4.0071875 6.0196875 -4.0703125 4.8203125 C-3.9192653 1.64832125 -3.30925083 0.3322541 0 0 Z " fill="#F6F3FB" transform="translate(670.9453125,319.8046875)"/>
<path d="M0 0 C1.98 0 3.96 0 6 0 C6 9.24 6 18.48 6 28 C4.02 28 2.04 28 0 28 C0 18.76 0 9.52 0 0 Z " fill="#EEF7FD" transform="translate(579,320)"/>
<path d="M0 0 C1.98 0 3.96 0 6 0 C6 9.24 6 18.48 6 28 C4.02 28 2.04 28 0 28 C0 18.76 0 9.52 0 0 Z " fill="#EEF6FD" transform="translate(427,320)"/>
<path d="M0 0 C1.98 0 3.96 0 6 0 C6 9.24 6 18.48 6 28 C4.02 28 2.04 28 0 28 C0 18.76 0 9.52 0 0 Z " fill="#F8F6FA" transform="translate(406,320)"/>
<path d="M0 0 C4.29 0 8.58 0 13 0 C13.33 0.66 13.66 1.32 14 2 C13.67 2.99 13.34 3.98 13 5 C11.35 5.33 9.7 5.66 8 6 C6.9458482 9.16245541 6.68724328 11.86948218 6.4375 15.1875 C6.35371094 16.27417969 6.26992188 17.36085938 6.18359375 18.48046875 C6.12300781 19.31191406 6.06242188 20.14335937 6 21 C4.02 21 2.04 21 0 21 C0 14.07 0 7.14 0 0 Z " fill="#F2F7FD" transform="translate(711,327)"/>
<path d="M0 0 C3.63 0 7.26 0 11 0 C11 0.66 11 1.32 11 2 C11.99 2 12.98 2 14 2 C14.33 1.34 14.66 0.68 15 0 C16 1 16 1 16.09765625 3.94140625 C16.08605469 5.13636719 16.07445312 6.33132813 16.0625 7.5625 C16.05347656 8.76003906 16.04445313 9.95757812 16.03515625 11.19140625 C16.02355469 12.11824219 16.01195312 13.04507812 16 14 C14.68 14.33 13.36 14.66 12 15 C11.67 12.36 11.34 9.72 11 7 C10.67 7.33 10.34 7.66 10 8 C7.32941149 8.14115161 4.67567762 8.04247107 2 8 C2 10.31 2 12.62 2 15 C1.34 15 0.68 15 0 15 C0 10.05 0 5.1 0 0 Z " fill="#BABDC2" transform="translate(448,456)"/>
<path d="M0 0 C0.66 0 1.32 0 2 0 C2.33 1.32 2.66 2.64 3 4 C3.804375 4.144375 4.60875 4.28875 5.4375 4.4375 C8 5 8 5 9 6 C9.07179964 7.51928038 9.08392007 9.04167482 9.0625 10.5625 C9.05347656 11.38878906 9.04445313 12.21507812 9.03515625 13.06640625 C9.02355469 13.70449219 9.01195312 14.34257812 9 15 C8.34 15 7.68 15 7 15 C7 12.03 7 9.06 7 6 C5.68 6.33 4.36 6.66 3 7 C2.67 9.64 2.34 12.28 2 15 C1.34 15 0.68 15 0 15 C-0.33 14.34 -0.66 13.68 -1 13 C-1.66 13.66 -2.32 14.32 -3 15 C-5.5 15.25 -5.5 15.25 -8 15 C-10 13 -10 13 -10.25 9.5 C-10 6 -10 6 -8 4 C-4.26703674 3.61713197 -3.22373677 3.85084215 0 6 C0 4.02 0 2.04 0 0 Z " fill="#95959C" transform="translate(570,456)"/>
<path d="M0 0 C1.65 0 3.3 0 5 0 C5 0.66 5 1.32 5 2 C4.01 2 3.02 2 2 2 C2 2.66 2 3.32 2 4 C3.65 4 5.3 4 7 4 C7.99 6.31 8.98 8.62 10 11 C10.99 8.69 11.98 6.38 13 4 C13.66 4 14.32 4 15 4 C13.83805848 10.46712188 11.8751252 16.09622349 9 22 C7.68 22 6.36 22 5 22 C5 21.34 5 20.68 5 20 C5.66 19.67 6.32 19.34 7 19 C6.48041715 14.62065881 5.94324258 10.31196609 5 6 C3.68 6 2.36 6 1 6 C1 9.63 1 13.26 1 17 C0.34 17 -0.32 17 -1 17 C-1 13.37 -1 9.74 -1 6 C-1.66 6 -2.32 6 -3 6 C-3 5.34 -3 4.68 -3 4 C-2.34 4 -1.68 4 -1 4 C-0.67 2.68 -0.34 1.36 0 0 Z " fill="#E6ECFD" transform="translate(576,571)"/>
<path d="M0 0 C1.98 0 3.96 0 6 0 C6 6.93 6 13.86 6 21 C4.02 21 2.04 21 0 21 C0 14.07 0 7.14 0 0 Z " fill="#F2F8FD" transform="translate(679,327)"/>
<path d="M0 0 C1.98 0 3.96 0 6 0 C6 6.93 6 13.86 6 21 C4.02 21 2.04 21 0 21 C0 14.07 0 7.14 0 0 Z " fill="#EDF7FD" transform="translate(655,327)"/>
<path d="M0 0 C1.99954746 -0.04254356 4.00041636 -0.04080783 6 0 C7 1 7 1 7.09765625 3.94140625 C7.08605469 5.13636719 7.07445312 6.33132813 7.0625 7.5625 C7.05347656 8.76003906 7.04445313 9.95757812 7.03515625 11.19140625 C7.02355469 12.11824219 7.01195312 13.04507812 7 14 C5.68 14.33 4.36 14.66 3 15 C3 12.03 3 9.06 3 6 C2.34 6 1.68 6 1 6 C1 8.97 1 11.94 1 15 C0.01 15 -0.98 15 -2 15 C-2.33 11.37 -2.66 7.74 -3 4 C-2.34 4 -1.68 4 -1 4 C-0.67 2.68 -0.34 1.36 0 0 Z " fill="#91A3B2" transform="translate(531,456)"/>
<path d="M0 0 C2.33294775 -0.04241723 4.66702567 -0.04092937 7 0 C8.81115956 1.81115956 8.38199448 4.61278227 8.5625 7.0625 C8.64628906 8.16722656 8.73007812 9.27195312 8.81640625 10.41015625 C8.87699219 11.26480469 8.93757812 12.11945312 9 13 C7.37536158 13.05395478 5.75021459 13.09277195 4.125 13.125 C3.22007812 13.14820313 2.31515625 13.17140625 1.3828125 13.1953125 C-1 13 -1 13 -3 11 C-2.9375 9 -2.9375 9 -2 7 C0.89111788 5.47835901 2.71823412 5 6 5 C5.67 4.34 5.34 3.68 5 3 C2.69 3.33 0.38 3.66 -2 4 C-1.34 2.68 -0.68 1.36 0 0 Z " fill="#F0F6FE" transform="translate(534,575)"/>
<path d="M0 0 C0.78375 0.04125 1.5675 0.0825 2.375 0.125 C2.705 1.115 3.035 2.105 3.375 3.125 C4.695 2.795 6.015 2.465 7.375 2.125 C7.375 4.435 7.375 6.745 7.375 9.125 C6.4159375 9.3415625 6.4159375 9.3415625 5.4375 9.5625 C3.39954854 9.93507181 3.39954854 9.93507181 2.375 11.125 C-0.0625 11.3125 -0.0625 11.3125 -2.625 11.125 C-4.625 9.125 -4.625 9.125 -4.875 5.625 C-4.58138251 1.51435512 -4.25902123 0.20281053 0 0 Z " fill="#E3EAEB" transform="translate(379.625,457.875)"/>
<path d="M0 0 C2 1.375 2 1.375 3 3 C3 3.66 3 4.32 3 5 C2.443125 4.855625 1.88625 4.71125 1.3125 4.5625 C-3.42442992 3.08246474 -3.42442992 3.08246474 -8 4 C-8 6.97 -8 9.94 -8 13 C-5.03 13.495 -5.03 13.495 -2 14 C-1.34 13.01 -0.68 12.02 0 11 C0.99 11 1.98 11 3 11 C2.6875 12.875 2.6875 12.875 2 15 C-1.7205836 17.48038907 -3.59796571 17.46337203 -8 17 C-10.4375 15.5625 -10.4375 15.5625 -12 13 C-12.76726228 8.68909336 -12.73340143 5.25289411 -10.5 1.4375 C-6.73635524 -0.72659573 -4.31944059 -0.47993784 0 0 Z " fill="#E8EDFD" transform="translate(521,571)"/>
<path d="M0 0 C0.66 0.66 1.32 1.32 2 2 C1.625 5.625 1.625 5.625 1 9 C-1.31 9.33 -3.62 9.66 -6 10 C-8 7 -8 7 -7.75 3.375 C-7.5025 2.26125 -7.255 1.1475 -7 0 C-4.29393021 -1.35303489 -2.8671629 -0.7884698 0 0 Z " fill="#292639" transform="translate(520,461)"/>
<path d="M0 0 C1.32561852 6.38707103 1.32561852 6.38707103 -0.0625 9 C-2.91405714 10.47177143 -4.96704093 9.74138999 -8 9 C-9.32561852 2.61292897 -9.32561852 2.61292897 -7.9375 0 C-5.08594286 -1.47177143 -3.03295907 -0.74138999 0 0 Z " fill="#2E242E" transform="translate(407,461)"/>
<path d="M0 0 C0.99 0 1.98 0 3 0 C4.60546875 2.1875 4.60546875 2.1875 6.1875 5 C6.71730469 5.928125 7.24710937 6.85625 7.79296875 7.8125 C8.19128906 8.534375 8.58960938 9.25625 9 10 C9.33 6.7 9.66 3.4 10 0 C10.66 0 11.32 0 12 0 C12 4.95 12 9.9 12 15 C11.01 15 10.02 15 9 15 C7.39453125 12.8125 7.39453125 12.8125 5.8125 10 C5.28269531 9.071875 4.75289063 8.14375 4.20703125 7.1875 C3.80871094 6.465625 3.41039062 5.74375 3 5 C2.67 8.3 2.34 11.6 2 15 C1.34 15 0.68 15 0 15 C0 10.05 0 5.1 0 0 Z " fill="#3F261E" transform="translate(498,456)"/>
<path d="M0 0 C2.5 0.25 2.5 0.25 4.5 2.25 C4.75 5.75 4.75 5.75 4.5 9.25 C2.5 11.25 2.5 11.25 0 11.5 C-2.5 11.25 -2.5 11.25 -4.5 9.25 C-4.75 5.75 -4.75 5.75 -4.5 2.25 C-2.5 0.25 -2.5 0.25 0 0 Z " fill="#3A3237" transform="translate(585.5,459.75)"/>
<path d="M0 0 C2.5 0.25 2.5 0.25 4.5 2.25 C4.75 5.75 4.75 5.75 4.5 9.25 C2.5 11.25 2.5 11.25 0 11.5 C-2.5 11.25 -2.5 11.25 -4.5 9.25 C-4.75 5.75 -4.75 5.75 -4.5 2.25 C-2.5 0.25 -2.5 0.25 0 0 Z " fill="#2E242D" transform="translate(414.5,459.75)"/>
<path d="M0 0 C2.93453261 0.36681658 3.86437246 0.86437246 6 3 C6.38080215 6.50337981 6.40245078 8.36278626 4.5 11.375 C4.005 11.91125 3.51 12.4475 3 13 C-0.875 12.125 -0.875 12.125 -2 11 C-2.16796875 9.00390625 -2.16796875 9.00390625 -2.1875 6.5625 C-2.20167969 5.75941406 -2.21585937 4.95632813 -2.23046875 4.12890625 C-2 2 -2 2 0 0 Z " fill="#4E45DA" transform="translate(502,331)"/>
<path d="M0 0 C1.134375 0.020625 2.26875 0.04125 3.4375 0.0625 C3.7675 1.3825 4.0975 2.7025 4.4375 4.0625 C1.4675 3.5675 1.4675 3.5675 -1.5625 3.0625 C0.75606917 4.60821278 2.94388429 5.85868552 5.4375 7.0625 C4.5625 11.9375 4.5625 11.9375 3.4375 13.0625 C1.10452567 13.10342937 -1.22955225 13.10491723 -3.5625 13.0625 C-4.2225 11.7425 -4.8825 10.4225 -5.5625 9.0625 C-2.89583333 9.72916667 -0.22916667 10.39583333 2.4375 11.0625 C2.4375 10.0725 2.4375 9.0825 2.4375 8.0625 C1.468125 7.918125 0.49875 7.77375 -0.5 7.625 C-3.5625 7.0625 -3.5625 7.0625 -4.5625 6.0625 C-4.6875 3.5625 -4.6875 3.5625 -4.5625 1.0625 C-3.5625 0.0625 -3.5625 0.0625 0 0 Z " fill="#E9EFFD" transform="translate(561.5625,574.9375)"/>
<path d="M0 0 C1.134375 0.020625 2.26875 0.04125 3.4375 0.0625 C3.7675 1.3825 4.0975 2.7025 4.4375 4.0625 C1.4675 3.5675 1.4675 3.5675 -1.5625 3.0625 C0.75606917 4.60821278 2.94388429 5.85868552 5.4375 7.0625 C4.5625 11.9375 4.5625 11.9375 3.4375 13.0625 C1.10452567 13.10342937 -1.22955225 13.10491723 -3.5625 13.0625 C-4.2225 11.7425 -4.8825 10.4225 -5.5625 9.0625 C-2.89583333 9.72916667 -0.22916667 10.39583333 2.4375 11.0625 C2.4375 10.0725 2.4375 9.0825 2.4375 8.0625 C1.468125 7.918125 0.49875 7.77375 -0.5 7.625 C-3.5625 7.0625 -3.5625 7.0625 -4.5625 6.0625 C-4.6875 3.5625 -4.6875 3.5625 -4.5625 1.0625 C-3.5625 0.0625 -3.5625 0.0625 0 0 Z " fill="#E9EFFD" transform="translate(549.5625,574.9375)"/>
<path d="M0 0 C0.33 1.65 0.66 3.3 1 5 C-1.64 5 -4.28 5 -7 5 C-6.67 5.66 -6.34 6.32 -6 7 C-4.02 6.67 -2.04 6.34 0 6 C-0.33 7.32 -0.66 8.64 -1 10 C-3.72705554 10.22111261 -5.46420662 10.30361625 -7.875 8.9375 C-9.67936761 5.82997801 -8.81177938 3.37200667 -8 0 C-5.13822943 -1.43088528 -3.06624227 -0.59991697 0 0 Z " fill="#242533" transform="translate(477,461)"/>
<path d="M0 0 C2.5 0.25 2.5 0.25 4.5 2.25 C4.5 3.57 4.5 4.89 4.5 6.25 C2.19 6.25 -0.12 6.25 -2.5 6.25 C-2.5 7.24 -2.5 8.23 -2.5 9.25 C-0.85 9.25 0.8 9.25 2.5 9.25 C2.5 8.59 2.5 7.93 2.5 7.25 C3.16 7.25 3.82 7.25 4.5 7.25 C3.84 8.57 3.18 9.89 2.5 11.25 C0.125 11.375 0.125 11.375 -2.5 11.25 C-4.5 9.25 -4.5 9.25 -4.75 5.75 C-4.46177779 1.71488904 -4.15174939 0.41517494 0 0 Z " fill="#484853" transform="translate(435.5,459.75)"/>
<path d="M0 0 C2 2 2 2 2 5 C-0.64 5 -3.28 5 -6 5 C-5.01 6.485 -5.01 6.485 -4 8 C-2.35 7.34 -0.7 6.68 1 6 C1 6.99 1 7.98 1 9 C-4.3864279 10.31668238 -4.3864279 10.31668238 -6.9375 9 C-8.61956323 5.83376334 -7.81395841 3.38105802 -7 0 C-4.29393021 -1.35303489 -2.8671629 -0.7884698 0 0 Z " fill="#1B2435" transform="translate(610,461)"/>
<path d="M0 0 C2 2 2 2 2 5 C-0.64 5 -3.28 5 -6 5 C-5.01 6.485 -5.01 6.485 -4 8 C-2.35 7.34 -0.7 6.68 1 6 C1 6.99 1 7.98 1 9 C-4.3864279 10.31668238 -4.3864279 10.31668238 -6.9375 9 C-8.61956323 5.83376334 -7.81395841 3.38105802 -7 0 C-4.29393021 -1.35303489 -2.8671629 -0.7884698 0 0 Z " fill="#1B2435" transform="translate(551,461)"/>
<path d="M0 0 C0.33 1.32 0.66 2.64 1 4 C0.34 4 -0.32 4 -1 4 C-1.33 3.34 -1.66 2.68 -2 2 C-3.66611905 1.957279 -5.33382885 1.95936168 -7 2 C-8.40432936 3.17718985 -8.40432936 3.17718985 -8.125 6.5 C-8.40432936 9.82281015 -8.40432936 9.82281015 -7 11 C-3.27775401 11.29386153 -2.22213757 11.14809171 1 9 C0.67 10.32 0.34 11.64 0 13 C-6.27272727 14.44755245 -6.27272727 14.44755245 -9.4375 12.5 C-11.57590314 9.07855498 -11.56645882 6.96521177 -11 3 C-7.9816718 -1.82932511 -5.20382316 -1.20088227 0 0 Z " fill="#3A2B2E" transform="translate(384,457)"/>
<path d="M0 0 C2.7710688 2.34591852 3.52059284 4.14776201 4.1875 7.6875 C4.34605469 8.49574219 4.50460937 9.30398438 4.66796875 10.13671875 C4.77753906 10.75160156 4.88710938 11.36648438 5 12 C2.36 12 -0.28 12 -3 12 C-2.49202991 7.6822542 -1.80317221 3.96697886 0 0 Z " fill="#623FD4" transform="translate(388,326)"/>
<path d="M0 0 C3.3 0 6.6 0 10 0 C10 0.66 10 1.32 10 2 C7.36 2 4.72 2 2 2 C2 3.32 2 4.64 2 6 C4.31 6 6.62 6 9 6 C9 6.66 9 7.32 9 8 C6.69 8 4.38 8 2 8 C2 10.31 2 12.62 2 15 C1.34 15 0.68 15 0 15 C0 10.05 0 5.1 0 0 Z " fill="#36242E" transform="translate(448,456)"/>
<path d="M0 0 C0.66 0 1.32 0 2 0 C2.33 1.32 2.66 2.64 3 4 C3.804375 4.144375 4.60875 4.28875 5.4375 4.4375 C8 5 8 5 9 6 C9.07179964 7.51928038 9.08392007 9.04167482 9.0625 10.5625 C9.05347656 11.38878906 9.04445313 12.21507812 9.03515625 13.06640625 C9.02355469 13.70449219 9.01195312 14.34257812 9 15 C8.34 15 7.68 15 7 15 C7 12.03 7 9.06 7 6 C5.68 6.33 4.36 6.66 3 7 C2.67 9.64 2.34 12.28 2 15 C1.34 15 0.68 15 0 15 C0 10.05 0 5.1 0 0 Z " fill="#432934" transform="translate(570,456)"/>
<path d="M0 0 C0.66 0 1.32 0 2 0 C2.33 1.32 2.66 2.64 3 4 C4.65 4.33 6.3 4.66 8 5 C8 8.3 8 11.6 8 15 C7.34 15 6.68 15 6 15 C6 12.03 6 9.06 6 6 C4.68 6 3.36 6 2 6 C2 8.97 2 11.94 2 15 C1.34 15 0.68 15 0 15 C0 10.05 0 5.1 0 0 Z " fill="#203357" transform="translate(388,456)"/>
<path d="M0 0 C1.65 0 3.3 0 5 0 C5 0.66 5 1.32 5 2 C4.01 2 3.02 2 2 2 C2.33 3.32 2.66 4.64 3 6 C2.34 6 1.68 6 1 6 C1 9.63 1 13.26 1 17 C0.34 17 -0.32 17 -1 17 C-1 13.37 -1 9.74 -1 6 C-1.66 6 -2.32 6 -3 6 C-3 5.34 -3 4.68 -3 4 C-2.34 4 -1.68 4 -1 4 C-0.67 2.68 -0.34 1.36 0 0 Z " fill="#EEF6FD" transform="translate(576,571)"/>
<path d="M0 0 C0.99 0 1.98 0 3 0 C3 5.61 3 11.22 3 17 C2.01 17 1.02 17 0 17 C0 11.39 0 5.78 0 0 Z " fill="#E0ECFD" transform="translate(526,571)"/>
<path d="M0 0 C2.375 -0.1875 2.375 -0.1875 5 0 C5.66 0.99 6.32 1.98 7 3 C4.03 2.505 4.03 2.505 1 2 C1 2.66 1 3.32 1 4 C2.98 4.66 4.96 5.32 7 6 C6.125 9.875 6.125 9.875 5 11 C3.33382885 11.04063832 1.66611905 11.042721 0 11 C-0.33 9.68 -0.66 8.36 -1 7 C1.475 7.99 1.475 7.99 4 9 C4 8.34 4 7.68 4 7 C1.525 6.01 1.525 6.01 -1 5 C-0.67 3.35 -0.34 1.7 0 0 Z " fill="#2B232C" transform="translate(422,460)"/>
<path d="M0 0 C1.2065625 0.0309375 1.2065625 0.0309375 2.4375 0.0625 C2.7675 1.0525 3.0975 2.0425 3.4375 3.0625 C1.7875 2.7325 0.1375 2.4025 -1.5625 2.0625 C-1.8925 2.7225 -2.2225 3.3825 -2.5625 4.0625 C-0.5825 4.7225 1.3975 5.3825 3.4375 6.0625 C3.1075 7.7125 2.7775 9.3625 2.4375 11.0625 C0.7875 11.0625 -0.8625 11.0625 -2.5625 11.0625 C-3.2225 9.7425 -3.8825 8.4225 -4.5625 7.0625 C-3.9025 7.0625 -3.2425 7.0625 -2.5625 7.0625 C-2.5625 7.7225 -2.5625 8.3825 -2.5625 9.0625 C-0.9125 9.0625 0.7375 9.0625 2.4375 9.0625 C2.4375 8.4025 2.4375 7.7425 2.4375 7.0625 C0.4575 6.4025 -1.5225 5.7425 -3.5625 5.0625 C-3.5625 0.08689024 -3.5625 0.08689024 0 0 Z " fill="#2D2329" transform="translate(596.5625,459.9375)"/>
<path d="M0 0 C1.32 0.66 2.64 1.32 4 2 C4 3.65 4 5.3 4 7 C2.02 7.99 2.02 7.99 0 9 C-2 7 -2 7 -2.25 4.5 C-2 2 -2 2 0 0 Z " fill="#EDEDE0" transform="translate(516,461)"/>
<path d="M0 0 C1.2065625 0.0309375 1.2065625 0.0309375 2.4375 0.0625 C2.4375 2.3725 2.4375 4.6825 2.4375 7.0625 C0.77138095 7.105221 -0.89632885 7.10313832 -2.5625 7.0625 C-3.5625 6.0625 -3.5625 6.0625 -3.6875 3.5625 C-3.51717518 0.15600356 -3.41884482 0.08338646 0 0 Z " fill="#D2DCE1" transform="translate(414.5625,461.9375)"/>
<path d="M0 0 C1.32 0.66 2.64 1.32 4 2 C4 3.65 4 5.3 4 7 C2.34385343 7.38218767 0.67542976 7.71395102 -1 8 C-2 7 -2 7 -2.1875 4.5625 C-2 2 -2 2 0 0 Z " fill="#DBE4DE" transform="translate(402,461)"/>
<path d="M0 0 C0.99 0 1.98 0 3 0 C3 4.29 3 8.58 3 13 C2.01 13 1.02 13 0 13 C0 8.71 0 4.42 0 0 Z " fill="#DCE3FB" transform="translate(569,575)"/>
<path d="M0 0 C0.33 1.65 0.66 3.3 1 5 C-0.98 5 -2.96 5 -5 5 C-5 4.34 -5 3.68 -5 3 C-5.99 3 -6.98 3 -8 3 C-8 2.01 -8 1.02 -8 0 C-4.94736336 -0.98120464 -3.05263664 -0.98120464 0 0 Z " fill="#ECF0FD" transform="translate(542,583)"/>
<path d="M0 0 C1.65 0 3.3 0 5 0 C5 2.31 5 4.62 5 7 C3.35 7 1.7 7 0 7 C0 4.69 0 2.38 0 0 Z " fill="#F4F7F5" transform="translate(583,462)"/>
<path d="M0 0 C0.66 0 1.32 0 2 0 C2 4.95 2 9.9 2 15 C1.01 15 0.02 15 -1 15 C-1.33 14.01 -1.66 13.02 -2 12 C-1.34 12 -0.68 12 0 12 C0 8.04 0 4.08 0 0 Z " fill="#172C50" transform="translate(508,456)"/>
<path d="M0 0 C0.66 0 1.32 0 2 0 C2 0.66 2 1.32 2 2 C3.98 2 5.96 2 8 2 C8 2.33 8 2.66 8 3 C6.02 3 4.04 3 2 3 C2.33 3.66 2.66 4.32 3 5 C4.98 4.67 6.96 4.34 9 4 C8.67 5.32 8.34 6.64 8 8 C3.55063291 8.36075949 3.55063291 8.36075949 1.1875 6.8125 C-0.36678206 4.44017475 -0.22537188 2.77958655 0 0 Z " fill="#30241F" transform="translate(468,463)"/>
<path d="M0 0 C0.99 0.33 1.98 0.66 3 1 C1.515 2.485 1.515 2.485 0 4 C0.66 4.33 1.32 4.66 2 5 C1.34 5 0.68 5 0 5 C0 8.3 0 11.6 0 15 C-0.66 15 -1.32 15 -2 15 C-2.33 11.37 -2.66 7.74 -3 4 C-2.34 4 -1.68 4 -1 4 C-0.67 2.68 -0.34 1.36 0 0 Z " fill="#472B12" transform="translate(531,456)"/>
<path d="M0 0 C1.67542976 0.28604898 3.34385343 0.61781233 5 1 C5.33 2.32 5.66 3.64 6 5 C3.36 5 0.72 5 -2 5 C-1.125 1.125 -1.125 1.125 0 0 Z " fill="#5568E8" transform="translate(696,331)"/>
<path d="M0 0 C0.33 1.32 0.66 2.64 1 4 C0.34 4.66 -0.32 5.32 -1 6 C-4.29714793 5.67028521 -5.6226839 5.3773161 -8 3 C-5.36 2.01 -2.72 1.02 0 0 Z " fill="#5451DD" transform="translate(507,346)"/>
<path d="M0 0 C0.66 0 1.32 0 2 0 C2 0.66 2 1.32 2 2 C3.32 2.33 4.64 2.66 6 3 C4.68 3 3.36 3 2 3 C2.99 4.485 2.99 4.485 4 6 C5.65 5.34 7.3 4.68 9 4 C9 4.99 9 5.98 9 7 C3.55263158 8.33157895 3.55263158 8.33157895 1.125 6.875 C-0.32233508 4.46277487 -0.22417836 2.7648665 0 0 Z " fill="#29191E" transform="translate(602,463)"/>
<path d="M0 0 C0.66 0 1.32 0 2 0 C2 0.66 2 1.32 2 2 C3.32 2.33 4.64 2.66 6 3 C4.68 3 3.36 3 2 3 C2.99 4.485 2.99 4.485 4 6 C5.65 5.34 7.3 4.68 9 4 C9 4.99 9 5.98 9 7 C3.55263158 8.33157895 3.55263158 8.33157895 1.125 6.875 C-0.32233508 4.46277487 -0.22417836 2.7648665 0 0 Z " fill="#29191E" transform="translate(543,463)"/>
<path d="M0 0 C-0.33 1.65 -0.66 3.3 -1 5 C-4.75 6.125 -4.75 6.125 -7 5 C-7 4.01 -7 3.02 -7 2 C-2.25 0 -2.25 0 0 0 Z " fill="#6456DC" transform="translate(484,338)"/>
<path d="M0 0 C2.0625 0.4375 2.0625 0.4375 4 1 C4.33 2.32 4.66 3.64 5 5 C2.69 5 0.38 5 -2 5 C-1.125 1.125 -1.125 1.125 0 0 Z " fill="#5346DB" transform="translate(525,331)"/>
<path d="M0 0 C2.475 0.495 2.475 0.495 5 1 C5 4.3 5 7.6 5 11 C4.34 11 3.68 11 3 11 C3 8.03 3 5.06 3 2 C2.01 2 1.02 2 0 2 C0 1.34 0 0.68 0 0 Z " fill="#523A25" transform="translate(391,460)"/>
<path d="M0 0 C2.31 0.33 4.62 0.66 7 1 C6.67 3.31 6.34 5.62 6 8 C5.34 7.01 4.68 6.02 4 5 C1.44816596 3.79549696 1.44816596 3.79549696 -1 3 C-0.67 2.01 -0.34 1.02 0 0 Z " fill="#C6DCEA" transform="translate(595,461)"/>
<path d="M0 0 C0.33 1.32 0.66 2.64 1 4 C-0.65 4.66 -2.3 5.32 -4 6 C-4.33 4.68 -4.66 3.36 -5 2 C-3.35 1.34 -1.7 0.68 0 0 Z " fill="#4D53E2" transform="translate(600,338)"/>
<path d="M0 0 C3.96 1.98 3.96 1.98 8 4 C8 4.66 8 5.32 8 6 C6.35 6 4.7 6 3 6 C3 5.34 3 4.68 3 4 C2.34 4 1.68 4 1 4 C0.67 4.66 0.34 5.32 0 6 C0 4.02 0 2.04 0 0 Z " fill="#F6EEDF" transform="translate(591,463)"/>
<path d="M0 0 C1.98 0 3.96 0 6 0 C6 1.32 6 2.64 6 4 C4.02 4 2.04 4 0 4 C0 2.68 0 1.36 0 0 Z " fill="#F2F8FD" transform="translate(679,320)"/>
<path d="M0 0 C1.98 0 3.96 0 6 0 C6 1.32 6 2.64 6 4 C4.02 4 2.04 4 0 4 C0 2.68 0 1.36 0 0 Z " fill="#EDF7FD" transform="translate(655,320)"/>
<path d="M0 0 C2.64 0 5.28 0 8 0 C7.67 2.31 7.34 4.62 7 7 C6.34 6.01 5.68 5.02 5 4 C2.44816596 2.79549696 2.44816596 2.79549696 0 2 C0 1.34 0 0.68 0 0 Z " fill="#DBE6E5" transform="translate(423,462)"/>
<path d="M0 0 C2.64 0 5.28 0 8 0 C7.67 0.99 7.34 1.98 7 3 C4.57202689 3 2.37092995 2.49914315 0 2 C0 1.34 0 0.68 0 0 Z " fill="#CFDDE4" transform="translate(470,466)"/>
<path d="M0 0 C2.31 0 4.62 0 7 0 C5.515 1.98 5.515 1.98 4 4 C2.68 3.34 1.36 2.68 0 2 C0 1.34 0 0.68 0 0 Z " fill="#EAEDE6" transform="translate(545,466)"/>
<path d="M0 0 C0 0.99 0 1.98 0 3 C-1.98 3.33 -3.96 3.66 -6 4 C-6 3.01 -6 2.02 -6 1 C-3.92446352 0.4465236 -2.15634036 0 0 0 Z " fill="#4C8CF7" transform="translate(540,582)"/>
<path d="M0 0 C1.98 0 3.96 0 6 0 C5.34 1.32 4.68 2.64 4 4 C2.68 3.34 1.36 2.68 0 2 C0 1.34 0 0.68 0 0 Z " fill="#E9ECE4" transform="translate(604,466)"/>
<path d="M0 0 C1.32 0.66 2.64 1.32 4 2 C4 2.66 4 3.32 4 4 C2.02 4 0.04 4 -2 4 C-1.34 2.68 -0.68 1.36 0 0 Z " fill="#CDCEC5" transform="translate(606,461)"/>
<path d="M0 0 C1.32 0.66 2.64 1.32 4 2 C4 2.66 4 3.32 4 4 C2.02 4 0.04 4 -2 4 C-1.34 2.68 -0.68 1.36 0 0 Z " fill="#CDCEC5" transform="translate(547,461)"/>
<path d="M0 0 C1.32 0.66 2.64 1.32 4 2 C4 2.66 4 3.32 4 4 C2.02 4 0.04 4 -2 4 C-1.34 2.68 -0.68 1.36 0 0 Z " fill="#BAC1BF" transform="translate(472,461)"/>
<path d="M0 0 C2.31 0 4.62 0 7 0 C6.01 0.495 6.01 0.495 5 1 C5 1.66 5 2.32 5 3 C3.35 3 1.7 3 0 3 C0 2.01 0 1.02 0 0 Z " fill="#E6E6E1" transform="translate(433,466)"/>
</svg>
